<svg id="레이어_1" data-name="레이어 1" xmlns="http://www.w3.org/2000/svg" viewBox="0 0 189.68 202.56"><defs><style>.cls-1{fill:#f4c551;}.cls-2{fill:#eb8c18;}.cls-3{fill:#fff;}.cls-4{fill:#b91d38;}.cls-5{fill:#b6273a;}.cls-6{fill:#040000;}</style></defs><path class="cls-1" d="M64.8,167c-18.07-9.79-27.1-32-25.17-69.36L56.79,57.26l157.06,47.93Z" transform="translate(-33.57 -27.72)"/><path class="cls-2" d="M57.58,135.42" transform="translate(-33.57 -27.72)"/><path class="cls-2" d="M57.58,139.49a4.07,4.07,0,0,1-1.23-8l51.24-16.29a4.07,4.07,0,1,1,2.47,7.76L58.81,139.3A4,4,0,0,1,57.58,139.49Z" transform="translate(-33.57 -27.72)"/><path class="cls-2" d="M95.72,97.38a3.35,3.35,0,0,1-.63,0L57,91.37a4.07,4.07,0,0,1,1.26-8l38.14,6a4.07,4.07,0,0,1-.63,8.09Z" transform="translate(-33.57 -27.72)"/><path class="cls-2" d="M64.39,110.49h-.16a4.08,4.08,0,0,1-3.92-4.22c.64-16.68,4.46-28.81,12-38.16a4.07,4.07,0,1,1,6.33,5.12c-6.4,7.92-9.65,18.51-10.22,33.35A4.07,4.07,0,0,1,64.39,110.49Z" transform="translate(-33.57 -27.72)"/><path class="cls-2" d="M91.35,152.21a4.07,4.07,0,0,1-3.67-2.31c-5.91-12.23-7.89-24.67-5.91-37a4.07,4.07,0,0,1,8,1.3c-1.72,10.62,0,21.44,5.2,32.14a4.07,4.07,0,0,1-1.89,5.44A4,4,0,0,1,91.35,152.21Z" transform="translate(-33.57 -27.72)"/><polygon class="cls-3" points="184.6 138.06 184.6 80.69 28.3 142.45 30.94 198.06 184.6 138.06"/><rect class="cls-4" x="55.87" y="159.62" width="166.55" height="17" transform="translate(-84.19 32.62) rotate(-20.79)"/><circle class="cls-5" cx="101.89" cy="57.87" r="28.33"/><path class="cls-6" d="M38.07,109.7H38a4.49,4.49,0,0,1-4.44-4.56C33.85,85.65,40.86,69,54.42,55.56a4.48,4.48,0,0,1,4.39-1.13l50.53,14.33a4.5,4.5,0,0,1-2.45,8.66L58.94,63.82C48.16,75.29,42.81,88.88,42.57,105.26A4.5,4.5,0,0,1,38.07,109.7Z" transform="translate(-33.57 -27.72)"/><path class="cls-6" d="M61.29,230.28a4.43,4.43,0,0,1-2.64-.86,4.5,4.5,0,0,1-1.86-3.64V168.67a4.51,4.51,0,0,1,2.89-4.2l157.46-60.55a4.51,4.51,0,0,1,6.12,4.2v56.82a4.5,4.5,0,0,1-9,0V114.67L65.79,171.76v47.83l33.1-10.72a4.5,4.5,0,0,1,2.78,8.56l-39,12.63A4.39,4.39,0,0,1,61.29,230.28Z" transform="translate(-33.57 -27.72)"/><path class="cls-6" d="M218.76,112.62a4.63,4.63,0,0,1-1.32-.19l-51.8-15.81A4.5,4.5,0,0,1,168.26,88l51.81,15.81a4.5,4.5,0,0,1-1.31,8.8Z" transform="translate(-33.57 -27.72)"/><path class="cls-6" d="M135.46,121.4A34.94,34.94,0,0,1,131,51.81V32.22a4.5,4.5,0,0,1,9,0V56a4.49,4.49,0,0,1-4.5,4.5,25.91,25.91,0,1,0,22.91,13.75A4.5,4.5,0,1,1,166.3,70a34.95,34.95,0,0,1-30.84,51.37Z" transform="translate(-33.57 -27.72)"/></svg>