<?xml version="1.0" standalone="no"?>
<!DOCTYPE svg PUBLIC "-//W3C//DTD SVG 20010904//EN"
 "http://www.w3.org/TR/2001/REC-SVG-20010904/DTD/svg10.dtd">
<svg version="1.0" xmlns="http://www.w3.org/2000/svg"
 width="830.000000pt" height="1280.000000pt" viewBox="0 0 830.000000 1280.000000"
 preserveAspectRatio="xMidYMid meet">
<metadata>
Created by potrace 1.15, written by Peter Selinger 2001-2017
</metadata>
<g transform="translate(0.000000,1280.000000) scale(0.100000,-0.100000)"
fill="#fff" stroke="none">
<path d="M4657 12788 c-34 -12 -4515 -2598 -4572 -2638 -22 -15 -50 -47 -62
-71 l-23 -42 0 -3961 0 -3961 24 -50 c66 -140 243 -370 446 -579 653 -672
1680 -1242 2569 -1425 237 -49 526 -74 595 -51 38 12 4508 2588 4581 2640 22
15 50 47 62 71 l23 42 0 3961 c0 3830 -1 3962 -19 4001 -10 22 -29 50 -42 62
-26 24 -3403 1976 -3458 1999 -38 16 -84 17 -124 2z m1623 -1288 c852 -492
1550 -897 1550 -900 0 -3 -33 -24 -73 -47 -173 -100 -2631 -1519 -3619 -2090
-654 -378 -573 -345 -793 -318 -261 31 -417 68 -710 167 -581 195 -1223 561
-1704 971 -154 131 -373 356 -473 486 -49 62 -88 116 -88 119 1 11 4333 2511
4347 2509 7 -1 710 -405 1563 -897z m1650 -4827 l-1 -3768 -2115 -1220 c-1163
-671 -2119 -1222 -2124 -1223 -7 -3 -10 1292 -10 3760 l1 3763 2092 1208
c1150 664 2106 1216 2122 1226 17 11 31 20 33 20 1 1 2 -1694 2 -3766z m-7170
2513 c658 -577 1548 -1035 2305 -1187 140 -28 298 -49 367 -49 l58 0 0 -3791
0 -3790 -57 6 c-350 38 -677 123 -1040 272 -183 75 -521 247 -713 362 -547
329 -990 720 -1257 1108 l-53 77 0 3038 0 3037 114 -122 c294 -316 715 -646
1131 -886 146 -85 469 -242 634 -310 201 -82 494 -178 705 -231 199 -50 229
-49 259 12 16 33 17 40 3 71 -18 45 -32 52 -163 82 -667 157 -1356 486 -1903
909 -204 158 -389 327 -589 539 -44 45 -82 77 -95 78 -39 2 -61 -3 -78 -18
-17 -15 -18 13 -18 582 l0 597 138 -143 c75 -78 189 -188 252 -243z"/>
<path d="M453 7470 c-12 -5 -29 -22 -37 -38 -31 -60 -12 -87 202 -302 258
-257 422 -394 700 -584 429 -293 905 -525 1407 -683 161 -50 413 -113 456
-113 73 0 114 70 79 135 -16 29 -35 37 -186 74 -748 182 -1452 540 -2049 1039
-49 42 -181 167 -293 279 -213 213 -219 217 -279 193z"/>
<path d="M840 4736 c-128 -36 -230 -136 -287 -283 -23 -59 -27 -83 -27 -178 0
-98 3 -117 28 -180 79 -192 207 -288 386 -289 75 -1 93 3 150 30 83 39 133 83
182 158 126 195 102 469 -55 634 -97 101 -247 144 -377 108z m199 -171 c55
-27 101 -80 133 -152 30 -66 30 -207 1 -273 -35 -77 -78 -126 -134 -154 -124
-61 -244 -14 -320 126 -32 60 -34 68 -34 163 1 81 5 109 22 145 71 149 207
209 332 145z"/>
<path d="M818 3507 c-148 -56 -248 -179 -285 -350 -25 -119 -3 -244 63 -353
62 -104 131 -159 238 -189 156 -45 342 37 430 187 63 109 84 273 52 394 -33
123 -120 235 -223 286 -56 27 -78 32 -152 35 -55 2 -99 -2 -123 -10z m166
-151 c64 -19 111 -57 145 -118 73 -127 60 -290 -32 -394 -121 -137 -303 -101
-386 76 -37 79 -37 201 0 280 44 94 96 142 174 161 44 10 48 10 99 -5z"/>
</g>
</svg>
